# xmcd CD database file
#
# Track frame offsets:
#	150
#	20942
#	43306
#	64946
#	85190
#	105942
#	133587
#	141314
#	165723
#	183633
#	208547
#	231739
#	247059
#
# Disc length: 3482 seconds
#
# Revision: 3
# Processed by: cddbd v1.5.1PL0 Copyright (c) Steve Scherf et al.
# Submitted via: CDex 1.51
#
DISCID=c80d980d
DTITLE=BOYS TO MEN - I MAKE LOVE TO YOU
DYEAR=1994
DGENRE=Hip-Hop
TTITLE0=Thank You
TTITLE1=All around The World
TTITLE2=U Know
TTITLE3=Vibin'
TTITLE4=I Sit Away
TTITLE5=Jezzebel
TTITLE6=Khalil
TTITLE7=Trying Times
TTITLE8=I'll Make Love To You
TTITLE9=On Bended Knee
TTITLE10=50 Candles
TTITLE11=Water Runs Dry
TTITLE12=Yesterday
EXTD=YEAR: 1994
EXTT0=
EXTT1=
EXTT2=
EXTT3=
EXTT4=
EXTT5=
EXTT6=
EXTT7=
EXTT8=
EXTT9=
EXTT10=
EXTT11=
EXTT12=
PLAYORDER=
